[2026-03-15 12:28:10] [INFO] Jarvis Desktop launcher started.
[2026-03-15 12:28:10] [INFO] Runtime log path: C:\Jarvis\logs\runtime_2026-03-15_12-28-10.txt
[2026-03-15 12:28:10] [INFO] Launcher executable: C:\Users\anden\AppData\Local\Python\pythoncore-3.14-64\pythonw.exe
[2026-03-15 12:28:10] [INFO] Root directory: C:\Jarvis
[2026-03-15 12:28:10] [INFO] Target script: C:\Jarvis\jarvis_desktop_test.py
[2026-03-15 12:28:10] [INFO] Diagnostics script: C:\Jarvis\desktop\jarvis_diagnostics.pyw
[2026-03-15 12:28:10] [INFO] Recovery attempts allowed: 3
[2026-03-15 12:28:10] [INFO] Voice hook ready: C:\Jarvis\jarvis_voice.py
[2026-03-15 12:28:10] [INFO] Starting desktop renderer process. attempt=1
[2026-03-15 12:28:10] [INFO] Child executable: C:\Users\anden\AppData\Local\Python\pythoncore-3.14-64\pythonw.exe
[2026-03-15 12:28:11] [STDOUT] Jarvis Desktop Concept 1 - Version 1.02
[2026-03-15 12:28:11] [STDOUT] Hotkey: Ctrl + Alt + End
[2026-03-15 12:28:11] [STDERR] Traceback (most recent call last):
[2026-03-15 12:28:11] [STDERR]   File "C:\Jarvis\jarvis_desktop_test.py", line 44, in <module>
[2026-03-15 12:28:11] [STDERR]     raise SystemExit(main())
[2026-03-15 12:28:11] [STDERR]                      ~~~~^^
[2026-03-15 12:28:11] [STDERR]   File "C:\Jarvis\jarvis_desktop_test.py", line 36, in main
[2026-03-15 12:28:11] [STDERR]     raise RuntimeError("Jarvis test crash triggered intentionally")
[2026-03-15 12:28:11] [STDERR] RuntimeError: Jarvis test crash triggered intentionally
[2026-03-15 12:28:11] [INFO] Desktop renderer exited. exit_code=1
[2026-03-15 12:28:11] [WARN] Recovery attempt 1/3
[2026-03-15 12:28:12] [INFO] Starting desktop renderer process. attempt=2
[2026-03-15 12:28:12] [INFO] Child executable: C:\Users\anden\AppData\Local\Python\pythoncore-3.14-64\pythonw.exe
[2026-03-15 12:28:12] [STDOUT] Jarvis Desktop Concept 1 - Version 1.02
[2026-03-15 12:28:12] [STDOUT] Hotkey: Ctrl + Alt + End
[2026-03-15 12:28:12] [STDERR] Traceback (most recent call last):
[2026-03-15 12:28:12] [STDERR]   File "C:\Jarvis\jarvis_desktop_test.py", line 44, in <module>
[2026-03-15 12:28:12] [STDERR]     raise SystemExit(main())
[2026-03-15 12:28:12] [STDERR]                      ~~~~^^
[2026-03-15 12:28:12] [STDERR]   File "C:\Jarvis\jarvis_desktop_test.py", line 36, in main
[2026-03-15 12:28:12] [STDERR]     raise RuntimeError("Jarvis test crash triggered intentionally")
[2026-03-15 12:28:12] [STDERR] RuntimeError: Jarvis test crash triggered intentionally
[2026-03-15 12:28:12] [INFO] Desktop renderer exited. exit_code=1
[2026-03-15 12:28:12] [WARN] Recovery attempt 2/3
[2026-03-15 12:28:14] [INFO] Starting desktop renderer process. attempt=3
[2026-03-15 12:28:14] [INFO] Child executable: C:\Users\anden\AppData\Local\Python\pythoncore-3.14-64\pythonw.exe
[2026-03-15 12:28:14] [STDOUT] Jarvis Desktop Concept 1 - Version 1.02
[2026-03-15 12:28:14] [STDOUT] Hotkey: Ctrl + Alt + End
[2026-03-15 12:28:14] [STDERR] Traceback (most recent call last):
[2026-03-15 12:28:14] [STDERR]   File "C:\Jarvis\jarvis_desktop_test.py", line 44, in <module>
[2026-03-15 12:28:14] [STDERR]     raise SystemExit(main())
[2026-03-15 12:28:14] [STDERR]                      ~~~~^^
[2026-03-15 12:28:14] [STDERR]   File "C:\Jarvis\jarvis_desktop_test.py", line 36, in main
[2026-03-15 12:28:14] [STDERR]     raise RuntimeError("Jarvis test crash triggered intentionally")
[2026-03-15 12:28:14] [STDERR] RuntimeError: Jarvis test crash triggered intentionally
[2026-03-15 12:28:14] [INFO] Desktop renderer exited. exit_code=1
[2026-03-15 12:28:14] [ERROR] Crash log written: C:\Jarvis\logs\crash\crash_2026-03-15_12-28-14.txt
[2026-03-15 12:28:14] [INFO] Trying voice line 'Uhm..... Sir, I seem to be malfunctioning.' using voice --text --mode
[2026-03-15 12:28:23] [VOICE_STDOUT] ffmpeg version 2026-03-12-git-9dc44b43b2-essentials_build-www.gyan.dev Copyright (c) 2000-2026 the FFmpeg developers
[2026-03-15 12:28:23] [VOICE_STDOUT]   built with gcc 15.2.0 (Rev11, Built by MSYS2 project)
[2026-03-15 12:28:23] [VOICE_STDOUT]   configuration: --enable-gpl --enable-version3 --enable-static --disable-w32threads --disable-autodetect --enable-cairo --enable-fontconfig --enable-iconv --enable-gnutls --enable-libxml2 --enable-gmp --enable-bzlib --enable-lzma --enable-zlib --enable-libsrt --enable-libssh --enable-libzmq --enable-avisynth --enable-sdl2 --enable-libwebp --enable-libx264 --enable-libx265 --enable-libxvid --enable-libaom --enable-libopenjpeg --enable-libvpx --enable-mediafoundation --enable-libass --enable-libfreetype --enable-libfribidi --enable-libharfbuzz --enable-libvidstab --enable-libvmaf --enable-libzimg --enable-amf --enable-cuda-llvm --enable-cuvid --enable-dxva2 --enable-d3d11va --enable-d3d12va --enable-ffnvcodec --enable-libvpl --enable-nvdec --enable-nvenc --enable-vaapi --enable-openal --enable-libgme --enable-libopenmpt --enable-libopencore-amrwb --enable-libmp3lame --enable-libtheora --enable-libvo-amrwbenc --enable-libgsm --enable-libopencore-amrnb --enable-libopus --enable-libspeex --enable-libvorbis --enable-librubberband
[2026-03-15 12:28:23] [VOICE_STDOUT]   libavutil      60. 27.100 / 60. 27.100
[2026-03-15 12:28:23] [VOICE_STDOUT]   libavcodec     62. 29.100 / 62. 29.100
[2026-03-15 12:28:23] [VOICE_STDOUT]   libavformat    62. 13.100 / 62. 13.100
[2026-03-15 12:28:23] [VOICE_STDOUT]   libavdevice    62.  4.100 / 62.  4.100
[2026-03-15 12:28:23] [VOICE_STDOUT]   libavfilter    11. 15.101 / 11. 15.101
[2026-03-15 12:28:23] [VOICE_STDOUT]   libswscale      9.  6.100 /  9.  6.100
[2026-03-15 12:28:23] [VOICE_STDOUT]   libswresample   6.  4.100 /  6.  4.100
[2026-03-15 12:28:23] [VOICE_STDOUT] [Parsed_aphaser_30 @ 000001f073771880] Value 2.100000 for parameter 'speed' out of range [0.1 - 2]
[2026-03-15 12:28:23] [VOICE_STDOUT] [fc#0 @ 000001f073719a00] Error applying option 'speed' to filter 'aphaser': Result too large
[2026-03-15 12:28:23] [VOICE_STDOUT] Error : Result too large
[2026-03-15 12:28:23] [VOICE_STDERR] [mp3 @ 000002148153AD40] Estimating duration from bitrate, this may be inaccurate
[2026-03-15 12:28:23] [VOICE_STDERR] Input #0, mp3, from 'C:/Users/anden/AppData/Local/Temp/tmpoh_bqb14.mp3':
[2026-03-15 12:28:23] [VOICE_STDERR]   Duration: 00:00:05.14, start: 0.000000, bitrate: 48 kb/s
[2026-03-15 12:28:23] [VOICE_STDERR]   Stream #0:0: Audio: mp3 (mp3float), 24000 Hz, mono, fltp, 48 kb/s
[2026-03-15 12:28:23] [INFO] Voice line completed: Uhm..... Sir, I seem to be malfunctioning.
[2026-03-15 12:28:23] [INFO] Failure voice step 1/3 success=True line=Uhm..... Sir, I seem to be malfunctioning.
[2026-03-15 12:28:23] [INFO] Trying voice line 'Attempting restart.' using voice --text --mode
[2026-03-15 12:28:28] [VOICE_STDOUT] ffmpeg version 2026-03-12-git-9dc44b43b2-essentials_build-www.gyan.dev Copyright (c) 2000-2026 the FFmpeg developers
[2026-03-15 12:28:28] [VOICE_STDOUT]   built with gcc 15.2.0 (Rev11, Built by MSYS2 project)
[2026-03-15 12:28:28] [VOICE_STDOUT]   configuration: --enable-gpl --enable-version3 --enable-static --disable-w32threads --disable-autodetect --enable-cairo --enable-fontconfig --enable-iconv --enable-gnutls --enable-libxml2 --enable-gmp --enable-bzlib --enable-lzma --enable-zlib --enable-libsrt --enable-libssh --enable-libzmq --enable-avisynth --enable-sdl2 --enable-libwebp --enable-libx264 --enable-libx265 --enable-libxvid --enable-libaom --enable-libopenjpeg --enable-libvpx --enable-mediafoundation --enable-libass --enable-libfreetype --enable-libfribidi --enable-libharfbuzz --enable-libvidstab --enable-libvmaf --enable-libzimg --enable-amf --enable-cuda-llvm --enable-cuvid --enable-dxva2 --enable-d3d11va --enable-d3d12va --enable-ffnvcodec --enable-libvpl --enable-nvdec --enable-nvenc --enable-vaapi --enable-openal --enable-libgme --enable-libopenmpt --enable-libopencore-amrwb --enable-libmp3lame --enable-libtheora --enable-libvo-amrwbenc --enable-libgsm --enable-libopencore-amrnb --enable-libopus --enable-libspeex --enable-libvorbis --enable-librubberband
[2026-03-15 12:28:28] [VOICE_STDOUT]   libavutil      60. 27.100 / 60. 27.100
[2026-03-15 12:28:28] [VOICE_STDOUT]   libavcodec     62. 29.100 / 62. 29.100
[2026-03-15 12:28:28] [VOICE_STDOUT]   libavformat    62. 13.100 / 62. 13.100
[2026-03-15 12:28:28] [VOICE_STDOUT]   libavdevice    62.  4.100 / 62.  4.100
[2026-03-15 12:28:28] [VOICE_STDOUT]   libavfilter    11. 15.101 / 11. 15.101
[2026-03-15 12:28:28] [VOICE_STDOUT]   libswscale      9.  6.100 /  9.  6.100
[2026-03-15 12:28:28] [VOICE_STDOUT]   libswresample   6.  4.100 /  6.  4.100
[2026-03-15 12:28:28] [VOICE_STDOUT] [Parsed_aphaser_30 @ 000001cdda1dba40] Value 2.100000 for parameter 'speed' out of range [0.1 - 2]
[2026-03-15 12:28:28] [VOICE_STDOUT] [fc#0 @ 000001cdda1ab0c0] Error applying option 'speed' to filter 'aphaser': Result too large
[2026-03-15 12:28:28] [VOICE_STDOUT] Error : Result too large
[2026-03-15 12:28:28] [VOICE_STDERR] [mp3 @ 0000029673925740] Estimating duration from bitrate, this may be inaccurate
[2026-03-15 12:28:28] [VOICE_STDERR] Input #0, mp3, from 'C:/Users/anden/AppData/Local/Temp/tmpkplt3doi.mp3':
[2026-03-15 12:28:28] [VOICE_STDERR]   Duration: 00:00:02.66, start: 0.000000, bitrate: 48 kb/s
[2026-03-15 12:28:28] [VOICE_STDERR]   Stream #0:0: Audio: mp3 (mp3float), 24000 Hz, mono, fltp, 48 kb/s
[2026-03-15 12:28:28] [INFO] Voice line completed: Attempting restart.
[2026-03-15 12:28:28] [INFO] Failure voice step 2/3 success=True line=Attempting restart.
[2026-03-15 12:28:29] [INFO] Trying voice line 'Restart failed.' using voice --text --mode
[2026-03-15 12:28:33] [VOICE_STDOUT] ffmpeg version 2026-03-12-git-9dc44b43b2-essentials_build-www.gyan.dev Copyright (c) 2000-2026 the FFmpeg developers
[2026-03-15 12:28:33] [VOICE_STDOUT]   built with gcc 15.2.0 (Rev11, Built by MSYS2 project)
[2026-03-15 12:28:33] [VOICE_STDOUT]   configuration: --enable-gpl --enable-version3 --enable-static --disable-w32threads --disable-autodetect --enable-cairo --enable-fontconfig --enable-iconv --enable-gnutls --enable-libxml2 --enable-gmp --enable-bzlib --enable-lzma --enable-zlib --enable-libsrt --enable-libssh --enable-libzmq --enable-avisynth --enable-sdl2 --enable-libwebp --enable-libx264 --enable-libx265 --enable-libxvid --enable-libaom --enable-libopenjpeg --enable-libvpx --enable-mediafoundation --enable-libass --enable-libfreetype --enable-libfribidi --enable-libharfbuzz --enable-libvidstab --enable-libvmaf --enable-libzimg --enable-amf --enable-cuda-llvm --enable-cuvid --enable-dxva2 --enable-d3d11va --enable-d3d12va --enable-ffnvcodec --enable-libvpl --enable-nvdec --enable-nvenc --enable-vaapi --enable-openal --enable-libgme --enable-libopenmpt --enable-libopencore-amrwb --enable-libmp3lame --enable-libtheora --enable-libvo-amrwbenc --enable-libgsm --enable-libopencore-amrnb --enable-libopus --enable-libspeex --enable-libvorbis --enable-librubberband
[2026-03-15 12:28:33] [VOICE_STDOUT]   libavutil      60. 27.100 / 60. 27.100
[2026-03-15 12:28:33] [VOICE_STDOUT]   libavcodec     62. 29.100 / 62. 29.100
[2026-03-15 12:28:33] [VOICE_STDOUT]   libavformat    62. 13.100 / 62. 13.100
[2026-03-15 12:28:33] [VOICE_STDOUT]   libavdevice    62.  4.100 / 62.  4.100
[2026-03-15 12:28:33] [VOICE_STDOUT]   libavfilter    11. 15.101 / 11. 15.101
[2026-03-15 12:28:33] [VOICE_STDOUT]   libswscale      9.  6.100 /  9.  6.100
[2026-03-15 12:28:33] [VOICE_STDOUT]   libswresample   6.  4.100 /  6.  4.100
[2026-03-15 12:28:33] [VOICE_STDOUT] [Parsed_aphaser_30 @ 000001f4179fa680] Value 2.100000 for parameter 'speed' out of range [0.1 - 2]
[2026-03-15 12:28:33] [VOICE_STDOUT] [fc#0 @ 000001f4179cb140] Error applying option 'speed' to filter 'aphaser': Result too large
[2026-03-15 12:28:33] [VOICE_STDOUT] Error : Result too large
[2026-03-15 12:28:33] [VOICE_STDERR] [mp3 @ 000002EEA8D29C80] Estimating duration from bitrate, this may be inaccurate
[2026-03-15 12:28:33] [VOICE_STDERR] Input #0, mp3, from 'C:/Users/anden/AppData/Local/Temp/tmpviudxivk.mp3':
[2026-03-15 12:28:33] [VOICE_STDERR]   Duration: 00:00:02.57, start: 0.000000, bitrate: 48 kb/s
[2026-03-15 12:28:33] [VOICE_STDERR]   Stream #0:0: Audio: mp3 (mp3float), 24000 Hz, mono, fltp, 48 kb/s
[2026-03-15 12:28:33] [INFO] Voice line completed: Restart failed.
[2026-03-15 12:28:33] [INFO] Failure voice step 3/3 success=True line=Restart failed.
[2026-03-15 12:28:33] [INFO] Diagnostics process launched.
